<?xml version="1.0" standalone="no"?><!DOCTYPE svg PUBLIC "-//W3C//DTD SVG 1.1//EN" "http://www.w3.org/Graphics/SVG/1.1/DTD/svg11.dtd"><svg t="1609814270523" class="icon" viewBox="0 0 1424 1024" version="1.1" xmlns="http://www.w3.org/2000/svg" p-id="5378" xmlns:xlink="http://www.w3.org/1999/xlink" width="278.125" height="200"><defs><style type="text/css"></style></defs><path d="M658.086064 942.201183L49.884991 233.362522 255.535714 35.004378h805.100701l205.650723 198.358144z" fill="#C80000" p-id="5379"></path><path d="M306.51084 435.266318L410.867642 558.611538c57.289041-52.7691 191.882334-40.634249 233.727152 31.358088 116.159112 1.834813 214.387232 7.652832 252.686397-38.780475 10.844065-15.267743 14.089262-32.075679-0.430262-43.39522-68.556075-46.770225-314.327649-22.116933-590.341548-72.527613zM140.312968 238.831956c-1.458516 0.364629 144.801445-140.746771 144.801445-140.746771h70.694259c-72.123605 57.697425-122.707848 137.293006-144.893331 224.194292zM513.485895 673.240667L658.086064 841.570888l138.446692-161.165992c-70.285875 16.506023-148.389394 24.663502-283.046861-7.164229z" fill="#FFEB00" p-id="5380"></path><path d="M870.664737 98.085185h61.257662c1.347669 22.379466-9.459933 36.780851-16.231822 43.880905C901.445254 121.806486 878.934521 102.825361 870.664737 98.085185z" fill="#FFEB00" p-id="5381"></path><path d="M1039.132059 402.382622L1175.859161 238.831956l-99.123649-98.047263v110.351302H872.016781c-4.699338-106.723974-112.789941-152.57971-238.602969-151.16349-115.577165 1.299538-212.065275 30.410054-221.087654 94.739349-8.810894 36.33892 31.215154 97.583456 273.471706 85.323173 192.815784-4.263242 311.010984 38.065803 353.334195 122.347595z" fill="#FFEB00" p-id="5382"></path></svg>